<?xml version="1.0" encoding="utf-8"?>
<svg viewBox="0 0 3.7041666 31.75" xmlns="http://www.w3.org/2000/svg" xmlns:bx="https://boxy-svg.com">
  <defs>
    <linearGradient gradientUnits="userSpaceOnUse" x1="1.852" y1="0.369" x2="1.852" y2="31.381" id="gradient-0" gradientTransform="matrix(1, 0, 0, 1, 0.000001, 0.000005)">
      <stop offset="0" style="stop-color: rgba(255, 68, 51, 1)"/>
      <stop offset="1" style="stop-color: rgba(204, 17, 0, 1)"/>
    </linearGradient>
    <linearGradient gradientUnits="userSpaceOnUse" x1="1.852" y1="0.369" x2="1.852" y2="31.381" id="gradient-1" spreadMethod="pad" gradientTransform="matrix(1, 0, 0, 1, 0.000001, 0.000005)">
      <stop offset="0" style="stop-color: rgba(56, 56, 56, 1)"/>
      <stop offset="1" style="stop-color: rgba(5, 5, 5, 1)"/>
    </linearGradient>
    <filter id="gaussian-blur-filter-0" color-interpolation-filters="sRGB" x="-500%" y="-500%" width="1000%" height="1000%" bx:preset="gaussian-blur 1 0.1">
      <feGaussianBlur stdDeviation="0.1 0.1" edgeMode="none"/>
    </filter>
  </defs>
  <g id="layer1">
    <path id="rect833" style="fill-opacity: 1; stroke-width: 0.738826; stroke-linecap: butt; stroke-linejoin: miter; stroke-miterlimit: 4; stroke-dasharray: none; stroke-opacity: 1; fill: url(#gradient-0); stroke: url(#gradient-1); paint-order: fill; filter: url(#gaussian-blur-filter-0); mix-blend-mode: hard-light;" d="M 1.428 0.369 L 2.381 0.369 L 3.335 0.369 C 3.335 0.369 2.276 1.572 2.276 2.308 C 2.276 3.044 3.335 3.51 3.335 4.246 C 3.335 4.982 2.276 5.448 2.276 6.184 C 2.276 6.92 3.335 7.386 3.335 8.122 C 3.335 8.858 2.276 9.324 2.276 10.06 C 2.276 10.797 3.335 11.262 3.335 11.999 C 3.335 12.735 2.276 13.201 2.276 13.937 C 2.276 14.673 3.335 15.139 3.335 15.875 C 3.335 16.611 2.276 17.077 2.276 17.813 C 2.276 18.549 3.335 19.015 3.335 19.751 C 3.335 20.488 2.276 20.953 2.276 21.69 C 2.276 22.426 3.335 22.892 3.335 23.628 C 3.335 24.364 2.276 24.83 2.276 25.566 C 2.276 26.302 3.335 26.768 3.335 27.504 C 3.335 28.24 2.276 28.706 2.276 29.442 C 2.276 30.178 3.335 31.381 3.335 31.381 L 2.381 31.381 L 1.428 31.381 C 1.428 31.381 0.369 30.178 0.369 29.442 C 0.369 28.706 1.428 28.24 1.428 27.504 C 1.428 26.768 0.369 26.302 0.369 25.566 C 0.369 24.83 1.428 24.364 1.428 23.628 C 1.428 22.892 0.369 22.426 0.369 21.69 C 0.369 20.953 1.428 20.488 1.428 19.751 C 1.428 19.015 0.369 18.549 0.369 17.813 C 0.369 17.077 1.428 16.611 1.428 15.875 C 1.428 15.139 0.369 14.673 0.369 13.937 C 0.369 13.201 1.428 12.735 1.428 11.999 C 1.428 11.262 0.369 10.797 0.369 10.06 C 0.369 9.324 1.428 8.858 1.428 8.122 C 1.428 7.386 0.369 6.92 0.369 6.184 C 0.369 5.448 1.428 4.982 1.428 4.246 C 1.428 3.51 0.369 3.044 0.369 2.308 C 0.369 1.572 1.428 0.369 1.428 0.369 Z"/>
  </g>
</svg>