{
    "asset" : {
        "generator" : "Khronos glTF Blender I/O v1.0.5",
        "version" : "2.0"
    },
    "scene" : 0,
    "scenes" : [
        {
            "name" : "Scene",
            "nodes" : [
                0,
                1,
                2,
                3,
                4
            ]
        }
    ],
    "nodes" : [
        {
            "mesh" : 0,
            "name" : "Cube",
            "scale" : [
                48.290462493896484,
                48.290462493896484,
                48.290462493896484
            ]
        },
        {
            "mesh" : 1,
            "name" : "Cylinder",
            "rotation" : [
                -0.716758131980896,
                0,
                0,
                0.6973218321800232
            ],
            "scale" : [
                23.242774963378906,
                23.242778778076172,
                23.242778778076172
            ],
            "translation" : [
                0,
                77.49796295166016,
                32.81066131591797
            ]
        },
        {
            "mesh" : 2,
            "name" : "BezierCircle",
            "rotation" : [
                -0.7070793509483337,
                0.35742753744125366,
                -0.006229552906006575,
                0.6101192831993103
            ],
            "scale" : [
                32.88211441040039,
                32.88211441040039,
                32.882118225097656
            ],
            "translation" : [
                -31.988513946533203,
                -12.674899101257324,
                17.94571876525879
            ]
        },
        {
            "mesh" : 3,
            "name" : "BezierCircle.001",
            "rotation" : [
                -0.3481447398662567,
                -0.349665105342865,
                -0.6154634356498718,
                0.6146008968353271
            ],
            "scale" : [
                32.88211441040039,
                32.882118225097656,
                32.882118225097656
            ],
            "translation" : [
                0.4528140723705292,
                -12.674896240234375,
                -36.67573547363281
            ]
        },
        {
            "mesh" : 4,
            "name" : "BezierCircle.002",
            "rotation" : [
                0.3589347004890442,
                -0.7070925831794739,
                -0.6092338562011719,
                0.004481463693082333
            ],
            "scale" : [
                32.88211441040039,
                32.88212203979492,
                32.882118225097656
            ],
            "translation" : [
                31.535707473754883,
                -12.674896240234375,
                18.73001480102539
            ]
        }
    ],
    "materials" : [
        {
            "doubleSided" : true,
            "name" : "Material",
            "pbrMetallicRoughness" : {
                "baseColorFactor" : [
                    1,
                    1,
                    1,
                    1
                ],
                "metallicFactor" : 0,
                "roughnessFactor" : 0.5329949259757996
            }
        },
        {
            "doubleSided" : true,
            "name" : "Material.001",
            "pbrMetallicRoughness" : {
                "baseColorFactor" : [
                    0.9699286818504333,
                    0.13085800409317017,
                    0.21827837824821472,
                    1
                ],
                "metallicFactor" : 0,
                "roughnessFactor" : 0.5304570198059082
            }
        },
        {
            "doubleSided" : true,
            "name" : "Material.004",
            "pbrMetallicRoughness" : {
                "baseColorFactor" : [
                    0.6151833534240723,
                    0.6151833534240723,
                    0.6151833534240723,
                    1
                ],
                "metallicFactor" : 0.8121827244758606,
                "roughnessFactor" : 0.44923853874206543
            }
        },
        {
            "doubleSided" : true,
            "name" : "Material.002",
            "pbrMetallicRoughness" : {
                "baseColorFactor" : [
                    0.14707104861736298,
                    0.06768994778394699,
                    0.33432766795158386,
                    1
                ],
                "metallicFactor" : 0.4848484992980957,
                "roughnessFactor" : 0.5
            }
        },
        {
            "doubleSided" : true,
            "name" : "Material.003",
            "pbrMetallicRoughness" : {
                "baseColorFactor" : [
                    0.4369274079799652,
                    0.8062377572059631,
                    1,
                    1
                ],
                "metallicFactor" : 0,
                "roughnessFactor" : 0.24242424964904785
            }
        }
    ],
    "meshes" : [
        {
            "name" : "Cube",
            "primitives" : [
                {
                    "attributes" : {
                        "POSITION" : 0,
                        "NORMAL" : 1,
                        "TEXCOORD_0" : 2
                    },
                    "indices" : 3,
                    "material" : 0
                },
                {
                    "attributes" : {
                        "POSITION" : 4,
                        "NORMAL" : 5,
                        "TEXCOORD_0" : 6
                    },
                    "indices" : 7,
                    "material" : 1
                },
                {
                    "attributes" : {
                        "POSITION" : 8,
                        "NORMAL" : 9,
                        "TEXCOORD_0" : 10
                    },
                    "indices" : 11,
                    "material" : 2
                }
            ]
        },
        {
            "name" : "Cylinder",
            "primitives" : [
                {
                    "attributes" : {
                        "POSITION" : 12,
                        "NORMAL" : 13,
                        "TEXCOORD_0" : 14
                    },
                    "indices" : 15,
                    "material" : 3
                },
                {
                    "attributes" : {
                        "POSITION" : 16,
                        "NORMAL" : 17,
                        "TEXCOORD_0" : 18
                    },
                    "indices" : 19,
                    "material" : 4
                }
            ]
        },
        {
            "name" : "BezierCircle",
            "primitives" : [
                {
                    "attributes" : {
                        "POSITION" : 20,
                        "NORMAL" : 21
                    },
                    "indices" : 22,
                    "material" : 3
                }
            ]
        },
        {
            "name" : "BezierCircle.001",
            "primitives" : [
                {
                    "attributes" : {
                        "POSITION" : 23,
                        "NORMAL" : 24
                    },
                    "indices" : 22,
                    "material" : 3
                }
            ]
        },
        {
            "name" : "BezierCircle.002",
            "primitives" : [
                {
                    "attributes" : {
                        "POSITION" : 25,
                        "NORMAL" : 26
                    },
                    "indices" : 22,
                    "material" : 3
                }
            ]
        }
    ],
    "accessors" : [
        {
            "bufferView" : 0,
            "componentType" : 5126,
            "count" : 4740,
            "max" : [
                1.0720248222351074,
                2.3567628860473633,
                0.9948685169219971
            ],
            "min" : [
                -1.0720248222351074,
                -1.0026063919067383,
                -0.9948685169219971
            ],
            "type" : "VEC3"
        },
        {
            "bufferView" : 1,
            "componentType" : 5126,
            "count" : 4740,
            "type" : "VEC3"
        },
        {
            "bufferView" : 2,
            "componentType" : 5126,
            "count" : 4740,
            "type" : "VEC2"
        },
        {
            "bufferView" : 3,
            "componentType" : 5123,
            "count" : 18432,
            "type" : "SCALAR"
        },
        {
            "bufferView" : 4,
            "componentType" : 5126,
            "count" : 3186,
            "max" : [
                1.0456687211990356,
                3.4551286697387695,
                0.967926025390625
            ],
            "min" : [
                -1.0456687211990356,
                -0.9695501327514648,
                -0.967926025390625
            ],
            "type" : "VEC3"
        },
        {
            "bufferView" : 5,
            "componentType" : 5126,
            "count" : 3186,
            "type" : "VEC3"
        },
        {
            "bufferView" : 6,
            "componentType" : 5126,
            "count" : 3186,
            "type" : "VEC2"
        },
        {
            "bufferView" : 7,
            "componentType" : 5123,
            "count" : 16896,
            "type" : "SCALAR"
        },
        {
            "bufferView" : 8,
            "componentType" : 5126,
            "count" : 4757,
            "max" : [
                0.5641338229179382,
                -0.9728885889053345,
                0.5524441599845886
            ],
            "min" : [
                -0.5641338229179382,
                -1.2510218620300293,
                -0.5524441599845886
            ],
            "type" : "VEC3"
        },
        {
            "bufferView" : 9,
            "componentType" : 5126,
            "count" : 4757,
            "type" : "VEC3"
        },
        {
            "bufferView" : 10,
            "componentType" : 5126,
            "count" : 4757,
            "type" : "VEC2"
        },
        {
            "bufferView" : 11,
            "componentType" : 5123,
            "count" : 12288,
            "type" : "SCALAR"
        },
        {
            "bufferView" : 12,
            "componentType" : 5126,
            "count" : 644,
            "max" : [
                1,
                1,
                1
            ],
            "min" : [
                -1,
                -1,
                -1
            ],
            "type" : "VEC3"
        },
        {
            "bufferView" : 13,
            "componentType" : 5126,
            "count" : 644,
            "type" : "VEC3"
        },
        {
            "bufferView" : 14,
            "componentType" : 5126,
            "count" : 644,
            "type" : "VEC2"
        },
        {
            "bufferView" : 15,
            "componentType" : 5123,
            "count" : 2394,
            "type" : "SCALAR"
        },
        {
            "bufferView" : 16,
            "componentType" : 5126,
            "count" : 32,
            "max" : [
                0.6715884804725647,
                -0.7300207614898682,
                0.6715885400772095
            ],
            "min" : [
                -0.6715885996818542,
                -0.7300207614898682,
                -0.671588659286499
            ],
            "type" : "VEC3"
        },
        {
            "bufferView" : 17,
            "componentType" : 5126,
            "count" : 32,
            "type" : "VEC3"
        },
        {
            "bufferView" : 18,
            "componentType" : 5126,
            "count" : 32,
            "type" : "VEC2"
        },
        {
            "bufferView" : 19,
            "componentType" : 5123,
            "count" : 90,
            "type" : "SCALAR"
        },
        {
            "bufferView" : 20,
            "componentType" : 5126,
            "count" : 2119,
            "max" : [
                0.31429535150527954,
                0.125,
                0.2257527858018875
            ],
            "min" : [
                -0.9142387509346008,
                -0.125,
                -1.7925361394882202
            ],
            "type" : "VEC3"
        },
        {
            "bufferView" : 21,
            "componentType" : 5126,
            "count" : 2119,
            "type" : "VEC3"
        },
        {
            "bufferView" : 22,
            "componentType" : 5123,
            "count" : 9204,
            "type" : "SCALAR"
        },
        {
            "bufferView" : 23,
            "componentType" : 5126,
            "count" : 2119,
            "max" : [
                0.31429535150527954,
                0.125,
                0.2257527858018875
            ],
            "min" : [
                -0.9142387509346008,
                -0.125,
                -1.7925361394882202
            ],
            "type" : "VEC3"
        },
        {
            "bufferView" : 24,
            "componentType" : 5126,
            "count" : 2119,
            "type" : "VEC3"
        },
        {
            "bufferView" : 25,
            "componentType" : 5126,
            "count" : 2119,
            "max" : [
                0.31429535150527954,
                0.125,
                0.2257527858018875
            ],
            "min" : [
                -0.9142387509346008,
                -0.125,
                -1.7925361394882202
            ],
            "type" : "VEC3"
        },
        {
            "bufferView" : 26,
            "componentType" : 5126,
            "count" : 2119,
            "type" : "VEC3"
        }
    ],
    "bufferViews" : [
        {
            "buffer" : 0,
            "byteLength" : 56880,
            "byteOffset" : 0
        },
        {
            "buffer" : 0,
            "byteLength" : 56880,
            "byteOffset" : 56880
        },
        {
            "buffer" : 0,
            "byteLength" : 37920,
            "byteOffset" : 113760
        },
        {
            "buffer" : 0,
            "byteLength" : 36864,
            "byteOffset" : 151680
        },
        {
            "buffer" : 0,
            "byteLength" : 38232,
            "byteOffset" : 188544
        },
        {
            "buffer" : 0,
            "byteLength" : 38232,
            "byteOffset" : 226776
        },
        {
            "buffer" : 0,
            "byteLength" : 25488,
            "byteOffset" : 265008
        },
        {
            "buffer" : 0,
            "byteLength" : 33792,
            "byteOffset" : 290496
        },
        {
            "buffer" : 0,
            "byteLength" : 57084,
            "byteOffset" : 324288
        },
        {
            "buffer" : 0,
            "byteLength" : 57084,
            "byteOffset" : 381372
        },
        {
            "buffer" : 0,
            "byteLength" : 38056,
            "byteOffset" : 438456
        },
        {
            "buffer" : 0,
            "byteLength" : 24576,
            "byteOffset" : 476512
        },
        {
            "buffer" : 0,
            "byteLength" : 7728,
            "byteOffset" : 501088
        },
        {
            "buffer" : 0,
            "byteLength" : 7728,
            "byteOffset" : 508816
        },
        {
            "buffer" : 0,
            "byteLength" : 5152,
            "byteOffset" : 516544
        },
        {
            "buffer" : 0,
            "byteLength" : 4788,
            "byteOffset" : 521696
        },
        {
            "buffer" : 0,
            "byteLength" : 384,
            "byteOffset" : 526484
        },
        {
            "buffer" : 0,
            "byteLength" : 384,
            "byteOffset" : 526868
        },
        {
            "buffer" : 0,
            "byteLength" : 256,
            "byteOffset" : 527252
        },
        {
            "buffer" : 0,
            "byteLength" : 180,
            "byteOffset" : 527508
        },
        {
            "buffer" : 0,
            "byteLength" : 25428,
            "byteOffset" : 527688
        },
        {
            "buffer" : 0,
            "byteLength" : 25428,
            "byteOffset" : 553116
        },
        {
            "buffer" : 0,
            "byteLength" : 18408,
            "byteOffset" : 578544
        },
        {
            "buffer" : 0,
            "byteLength" : 25428,
            "byteOffset" : 596952
        },
        {
            "buffer" : 0,
            "byteLength" : 25428,
            "byteOffset" : 622380
        },
        {
            "buffer" : 0,
            "byteLength" : 25428,
            "byteOffset" : 647808
        },
        {
            "buffer" : 0,
            "byteLength" : 25428,
            "byteOffset" : 673236
        }
    ],
    "buffers" : [
        {
            "byteLength" : 698664,
            "uri" : "data:application/octet-stream;base64,"
        }
    ]
}
